<?xml version="1.0" encoding="UTF-8"?>
<svg xmlns="http://www.w3.org/2000/svg" xmlns:xlink="http://www.w3.org/1999/xlink" width="20px" height="19px" viewBox="0 0 20 19" version="1.1">
<g id="surface1">
<path style=" stroke:none;fill-rule:nonzero;fill:rgb(50.980392%,50.980392%,50.980392%);fill-opacity:1;" d="M 20 18.109375 L 20 6.828125 C 20 6.664062 19.867188 6.53125 19.707031 6.53125 C 19.542969 6.53125 19.410156 6.664062 19.410156 6.828125 L 19.410156 18.109375 C 19.410156 18.273438 19.28125 18.40625 19.117188 18.40625 L 0.882812 18.40625 C 0.71875 18.40625 0.589844 18.273438 0.589844 18.109375 L 0.589844 6.828125 C 0.589844 6.664062 0.457031 6.53125 0.292969 6.53125 C 0.132812 6.53125 0 6.664062 0 6.828125 L 0 18.109375 C 0 18.601562 0.394531 19 0.882812 19 L 19.117188 19 C 19.605469 19 20 18.601562 20 18.109375 Z M 20 18.109375 "/>
<path style=" stroke:none;fill-rule:nonzero;fill:rgb(50.980392%,50.980392%,50.980392%);fill-opacity:1;" d="M 2.648438 13.65625 C 2.484375 13.65625 2.351562 13.789062 2.351562 13.953125 C 2.351562 14.117188 2.484375 14.25 2.648438 14.25 L 3.53125 14.25 L 3.53125 16.328125 C 3.53125 16.492188 3.660156 16.625 3.824219 16.625 C 3.984375 16.625 4.117188 16.492188 4.117188 16.328125 L 4.117188 14.25 L 7.648438 14.25 L 7.648438 16.328125 C 7.648438 16.492188 7.777344 16.625 7.941406 16.625 C 8.105469 16.625 8.234375 16.492188 8.234375 16.328125 L 8.234375 14.25 L 11.765625 14.25 L 11.765625 16.328125 C 11.765625 16.492188 11.894531 16.625 12.058594 16.625 C 12.222656 16.625 12.351562 16.492188 12.351562 16.328125 L 12.351562 14.25 L 15.882812 14.25 L 15.882812 16.328125 C 15.882812 16.492188 16.015625 16.625 16.175781 16.625 C 16.339844 16.625 16.46875 16.492188 16.46875 16.328125 L 16.46875 14.25 L 17.351562 14.25 C 17.515625 14.25 17.648438 14.117188 17.648438 13.953125 C 17.648438 13.789062 17.515625 13.65625 17.351562 13.65625 L 16.46875 13.65625 L 16.46875 10.6875 L 17.351562 10.6875 C 17.515625 10.6875 17.648438 10.554688 17.648438 10.390625 C 17.648438 10.226562 17.515625 10.09375 17.351562 10.09375 L 16.46875 10.09375 L 16.46875 7.421875 C 16.46875 7.257812 16.339844 7.125 16.175781 7.125 C 16.015625 7.125 15.882812 7.257812 15.882812 7.421875 L 15.882812 10.09375 L 12.351562 10.09375 L 12.351562 7.421875 C 12.351562 7.257812 12.222656 7.125 12.058594 7.125 C 11.894531 7.125 11.765625 7.257812 11.765625 7.421875 L 11.765625 10.09375 L 8.234375 10.09375 L 8.234375 7.421875 C 8.234375 7.257812 8.105469 7.125 7.941406 7.125 C 7.777344 7.125 7.648438 7.257812 7.648438 7.421875 L 7.648438 10.09375 L 4.117188 10.09375 L 4.117188 7.421875 C 4.117188 7.257812 3.984375 7.125 3.824219 7.125 C 3.660156 7.125 3.53125 7.257812 3.53125 7.421875 L 3.53125 10.09375 L 2.648438 10.09375 C 2.484375 10.09375 2.351562 10.226562 2.351562 10.390625 C 2.351562 10.554688 2.484375 10.6875 2.648438 10.6875 L 3.53125 10.6875 L 3.53125 13.65625 Z M 15.882812 10.6875 L 15.882812 13.65625 L 12.351562 13.65625 L 12.351562 10.6875 Z M 11.765625 10.6875 L 11.765625 13.65625 L 8.234375 13.65625 L 8.234375 10.6875 Z M 4.117188 10.6875 L 7.648438 10.6875 L 7.648438 13.65625 L 4.117188 13.65625 Z M 4.117188 10.6875 "/>
<path style=" stroke:none;fill-rule:nonzero;fill:rgb(50.980392%,50.980392%,50.980392%);fill-opacity:1;" d="M 16.765625 1.78125 L 19.265625 1.78125 C 19.316406 1.78125 19.410156 1.78125 19.410156 2.078125 L 19.410156 4.75 L 0.589844 4.75 L 0.589844 2.078125 C 0.589844 1.914062 0.71875 1.78125 0.882812 1.78125 L 3.234375 1.78125 C 3.398438 1.78125 3.53125 1.648438 3.53125 1.484375 C 3.53125 1.320312 3.398438 1.1875 3.234375 1.1875 L 0.882812 1.1875 C 0.394531 1.1875 0 1.585938 0 2.078125 L 0 5.046875 C 0 5.210938 0.132812 5.34375 0.292969 5.34375 L 19.707031 5.34375 C 19.867188 5.34375 20 5.210938 20 5.046875 L 20 2.078125 C 20 1.421875 19.621094 1.1875 19.265625 1.1875 L 16.765625 1.1875 C 16.601562 1.1875 16.46875 1.320312 16.46875 1.484375 C 16.46875 1.648438 16.601562 1.78125 16.765625 1.78125 Z M 16.765625 1.78125 "/>
<path style=" stroke:none;fill-rule:nonzero;fill:rgb(50.980392%,50.980392%,50.980392%);fill-opacity:1;" d="M 13.234375 1.78125 C 13.398438 1.78125 13.53125 1.648438 13.53125 1.484375 C 13.53125 1.320312 13.398438 1.1875 13.234375 1.1875 L 6.765625 1.1875 C 6.601562 1.1875 6.46875 1.320312 6.46875 1.484375 C 6.46875 1.648438 6.601562 1.78125 6.765625 1.78125 Z M 13.234375 1.78125 "/>
<path style=" stroke:none;fill-rule:nonzero;fill:rgb(50.980392%,50.980392%,50.980392%);fill-opacity:1;" d="M 5.292969 2.671875 L 5.292969 0.296875 C 5.292969 0.132812 5.164062 0 5 0 C 4.835938 0 4.707031 0.132812 4.707031 0.296875 L 4.707031 2.671875 C 4.707031 2.835938 4.835938 2.96875 5 2.96875 C 5.164062 2.96875 5.292969 2.835938 5.292969 2.671875 Z M 5.292969 2.671875 "/>
<path style=" stroke:none;fill-rule:nonzero;fill:rgb(50.980392%,50.980392%,50.980392%);fill-opacity:1;" d="M 15 2.96875 C 15.164062 2.96875 15.292969 2.835938 15.292969 2.671875 L 15.292969 0.296875 C 15.292969 0.132812 15.164062 0 15 0 C 14.835938 0 14.707031 0.132812 14.707031 0.296875 L 14.707031 2.671875 C 14.707031 2.835938 14.835938 2.96875 15 2.96875 Z M 15 2.96875 "/>
</g>
</svg>
