<?xml version="1.0" encoding="UTF-8"?>
<svg xmlns="http://www.w3.org/2000/svg" xmlns:xlink="http://www.w3.org/1999/xlink" width="15px" height="15px" viewBox="0 0 15 15" version="1.1">
<g id="surface1">
<path style=" stroke:none;fill-rule:nonzero;fill:rgb(0%,0%,0%);fill-opacity:1;" d="M 7.5 12.011719 C 7.09375 12.011719 6.710938 11.851562 6.421875 11.566406 L 0.445312 5.585938 C -0.148438 4.992188 -0.148438 4.027344 0.445312 3.433594 C 0.734375 3.144531 1.117188 2.988281 1.523438 2.988281 C 1.929688 2.988281 2.3125 3.144531 2.601562 3.433594 L 7.5 8.335938 L 12.398438 3.433594 C 12.6875 3.144531 13.070312 2.988281 13.476562 2.988281 C 13.882812 2.988281 14.265625 3.144531 14.554688 3.433594 C 14.84375 3.722656 15 4.105469 15 4.511719 C 15 4.917969 14.839844 5.300781 14.554688 5.589844 L 8.578125 11.566406 C 8.289062 11.855469 7.90625 12.011719 7.5 12.011719 Z M 1.523438 3.664062 C 1.296875 3.664062 1.082031 3.753906 0.925781 3.914062 C 0.59375 4.242188 0.59375 4.78125 0.925781 5.109375 L 6.902344 11.085938 C 7.21875 11.402344 7.765625 11.40625 8.085938 11.097656 L 14.074219 5.109375 C 14.234375 4.949219 14.324219 4.738281 14.324219 4.511719 C 14.324219 4.285156 14.234375 4.074219 14.074219 3.914062 C 13.753906 3.59375 13.199219 3.59375 12.878906 3.914062 L 7.5 9.292969 L 2.121094 3.914062 C 1.960938 3.753906 1.75 3.664062 1.523438 3.664062 Z M 1.523438 3.664062 "/>
</g>
</svg>
