<?xml version="1.0" encoding="UTF-8"?>
<svg xmlns="http://www.w3.org/2000/svg" xmlns:xlink="http://www.w3.org/1999/xlink" width="15px" height="15px" viewBox="0 0 15 15" version="1.1">
<g id="surface1">
<path style=" stroke:none;fill-rule:nonzero;fill:rgb(0%,0%,0%);fill-opacity:1;" d="M 4.535156 10.378906 C 4.816406 10.117188 5.285156 9.859375 5.9375 9.613281 C 6.230469 9.03125 6.523438 8.390625 6.753906 7.820312 C 6.558594 7.414062 6.433594 6.984375 6.382812 6.542969 C 6.179688 4.886719 8.054688 5.011719 7.769531 6.550781 C 7.714844 6.847656 7.585938 7.261719 7.382812 7.789062 C 7.675781 8.3125 8.066406 8.707031 8.375 8.96875 C 8.796875 8.902344 9.394531 8.832031 9.816406 8.894531 C 10.941406 9.058594 10.796875 10.296875 9.800781 10.296875 C 9.277344 10.296875 8.625 9.890625 8.214844 9.578125 C 7.589844 9.691406 6.917969 9.871094 6.34375 10.074219 C 6.160156 10.425781 5.914062 10.878906 5.691406 11.195312 C 4.773438 12.519531 3.5625 11.296875 4.535156 10.378906 Z M 5.5 10.425781 C 5.296875 10.527344 5.011719 10.703125 4.855469 10.875 C 4.617188 11.136719 4.773438 11.34375 5.0625 11.0625 C 5.207031 10.921875 5.378906 10.667969 5.5 10.425781 Z M 9.070312 9.460938 C 9.257812 9.585938 9.515625 9.71875 9.800781 9.726562 C 10.132812 9.730469 10.105469 9.515625 9.734375 9.460938 C 9.574219 9.4375 9.34375 9.4375 9.070312 9.460938 Z M 6.699219 9.355469 C 6.964844 9.269531 7.53125 9.136719 7.675781 9.101562 C 7.660156 9.085938 7.25 8.667969 7.117188 8.433594 C 7.007812 8.703125 6.707031 9.339844 6.699219 9.355469 Z M 6.953125 6.15625 C 6.90625 6.394531 6.976562 6.773438 7.054688 7.007812 C 7.148438 6.816406 7.261719 6.359375 7.214844 6.136719 C 7.167969 5.914062 7.003906 5.894531 6.953125 6.15625 Z M 8.1875 1.355469 C 8.03125 1.199219 7.722656 1.070312 7.5 1.070312 L 2.679688 1.070312 C 2.457031 1.070312 2.277344 1.253906 2.277344 1.472656 L 2.277344 13.527344 C 2.277344 13.746094 2.457031 13.929688 2.679688 13.929688 L 12.320312 13.929688 C 12.542969 13.929688 12.722656 13.746094 12.722656 13.527344 L 12.722656 6.292969 C 12.722656 6.074219 12.59375 5.765625 12.4375 5.609375 Z M 11.917969 13.125 L 3.082031 13.125 L 3.082031 1.875 L 7.488281 1.875 C 7.527344 1.882812 7.59375 1.910156 7.625 1.929688 L 11.863281 6.167969 C 11.886719 6.199219 11.914062 6.269531 11.917969 6.304688 Z M 12.320312 1.070312 L 9.910156 1.070312 C 9.691406 1.070312 9.636719 1.199219 9.792969 1.355469 L 12.4375 4 C 12.59375 4.15625 12.722656 4.105469 12.722656 3.882812 L 12.722656 1.472656 C 12.722656 1.253906 12.542969 1.070312 12.320312 1.070312 Z M 12.320312 1.070312 "/>
</g>
</svg>
